PathFileType	4	(X/Y/Z)	S01_0011_Gait_markers.trc
DataRate	CameraRate	NumFrames	NumMarkers	Units	OrigDataRate	OrigDataStartFrame	OrigNumFrames
250.000000	250.000000	4	54	mm	250.000000	44	359
Frame#	Time	HEAD_ANT			R_HEAD			L_HEAD			C7			R_BACK			L_BACK			STERNUM			R_ACROMION			R_HUM_PROX			R_HUM_ANT			R_HUM_POST			R_ELBOW_LAT			R_ELBOW_MED			R_FOREARM			R_WIRST_LAT			R_WRITS_MED			R_HAND			L_ACROMION			L_HUM_PROX			L_HUM_ANT			L_HUM_POST			L_ELBOW_LAT			L_ELBOW_MED			L_FOREARM			L_WRIST_LAT			L_WIRST_MED			L_HAND			R_ILIAC			SACRUM			L_ILIAC			R_GTROCH			R_THIGH__1			R_THIGH_2			R_THIGH_3			R_THIGH_4			R_SHANK_1			R_SHANK_2			R_SHANK_3			R_SHANK_4			R_HEEL			R_FOOT_LAT			R_FOOT_MED			L_GTROCH			L_THIGH_1			L_THIGH_2			L_THIGH_3			L_THIGH_4			L_SHANK_1			L_SHANK_2			L_SHANK_3			L_SHANK_4			L_HEEL			L_FOOT_LAT			L_FOOT_MED			
		X1	Y1	Z1	X2	Y2	Z2	X3	Y3	Z3	X4	Y4	Z4	X5	Y5	Z5	X6	Y6	Z6	X7	Y7	Z7	X8	Y8	Z8	X9	Y9	Z9	X10	Y10	Z10	X11	Y11	Z11	X12	Y12	Z12	X13	Y13	Z13	X14	Y14	Z14	X15	Y15	Z15	X16	Y16	Z16	X17	Y17	Z17	X18	Y18	Z18	X19	Y19	Z19	X20	Y20	Z20	X21	Y21	Z21	X22	Y22	Z22	X23	Y23	Z23	X24	Y24	Z24	X25	Y25	Z25	X26	Y26	Z26	X27	Y27	Z27	X28	Y28	Z28	X29	Y29	Z29	X30	Y30	Z30	X31	Y31	Z31	X32	Y32	Z32	X33	Y33	Z33	X34	Y34	Z34	X35	Y35	Z35	X36	Y36	Z36	X37	Y37	Z37	X38	Y38	Z38	X39	Y39	Z39	X40	Y40	Z40	X41	Y41	Z41	X42	Y42	Z42	X43	Y43	Z43	X44	Y44	Z44	X45	Y45	Z45	X46	Y46	Z46	X47	Y47	Z47	X48	Y48	Z48	X49	Y49	Z49	X50	Y50	Z50	X51	Y51	Z51	X52	Y52	Z52	X53	Y53	Z53	X54	Y54	Z54	

45	0.176	325.045654296875	1705.647216796875	-280.7439575195309	265.5556030273438	1650.749267578125	-207.272552490234	266.1217346191406	1662.340087890625	-354.2967834472653	126.1405487060547	1486.54638671875	-295.1571350097653	55.16291809082031	1286.101684570312	-238.5464935302732	57.51603698730469	1295.169555664062	-373.716613769531	305.4806518554688	1325.403686523438	-291.4958190917966	194.7378692626953	1437.55517578125	-120.7724838256833	136.0729217529297	1279.107299804688	-37.66418075561495	189.3310546875	1189.43017578125	-24.90428352355931	68.95413208007812	1200.712524414062	-35.45929336547825	106.6709365844727	1092.161254882812	-22.03695297241187	97.78562927246094	1087.864868164062	-101.7428359985349	175.2729339599609	897.3096923828125	-0.4047185778615867	207.7293090820312	823.7030029296875	-35.59603500366192	133.5345611572266	814.2474975585938	-4.81396198272687	186.2613525390625	737.628662109375	19.53982925415055	209.2305603027344	1445.36767578125	-460.311859130859	199.9878845214844	1281.516845703125	-559.1621093749997	267.2968444824219	1205.017822265625	-555.2709960937498	147.5780334472656	1201.082641601563	-588.8068847656248	216.1025390625	1100.044921875	-595.5192871093748	160.6241149902344	1086.190063476563	-541.1519775390623	356.1133422851562	952.8912353515626	-557.431945800781	398.0176391601562	907.4266357421876	-499.9644470214841	362.907958984375	867.9988403320314	-559.9387207031248	451.230224609375	839.3566284179689	-541.027160644531	211.3566131591797	1036.154052734375	-131.907028198242	81.11575317382812	1013.463684082031	-292.2586364746091	190.4989929199219	1035.105224609375	-476.2511901855466	185.3699951171875	885.609375	-117.3391036987303	306.7575988769531	626.823486328125	-151.5576324462889	354.0752258300781	661.2515258789062	-149.346466064453	392.2160339355469	568.8700561523438	-188.3377532958983	330.4280090332031	551.0974731445312	-175.1322326660155	389.1269226074219	334.6754760742188	-178.6644287109374	447.6773681640625	330.6232299804688	-194.3475189208984	467.7104187011719	249.0291137695313	-213.6199951171874	405.2877807617188	235.8394012451172	-202.5220031738281	420.17529296875	33.49938964843756	-291.5658874511719	582.798583984375	35.18800354003911	-207.1630554199219	632.6314086914062	66.49212646484382	-294.8980407714844	142.9823303222656	931.2591552734376	-476.6610412597654	148.5823822021484	638.3493041992189	-466.4203491210936	102.6617736816406	673.6897583007814	-479.0761108398436	60.43085861206055	579.8553466796876	-448.7532958984374	122.265869140625	564.0933227539064	-443.9486999511718	-49.29123687744141	333.6398925781251	-429.5399475097656	-108.2200012207031	347.8107299804689	-433.3916931152343	-158.773193359375	278.9881286621095	-413.3154907226562	-102.5447006225586	249.0022125244141	-403.8005676269531	-294.9429626464844	151.0038146972657	-339.3125610351562	-167.8494110107422	22.91200447082528	-390.439208984375	-131.9263458251953	30.41189956665045	-287.5229187011719	
46	0.18	331.1043090820312	1706.13427734375	-279.9537658691402	271.57373046875	1651.234130859375	-206.5802307128903	272.1016540527344	1662.888793945312	-353.5812377929684	132.5232543945312	1486.736328125	-294.2241210937497	61.4015998840332	1286.139892578125	-237.996398925781	63.85208511352539	1295.132568359375	-372.9266967773435	311.8678588867188	1325.804809570312	-290.887512207031	200.9958190917969	1437.562866210938	-120.0918884277341	142.6660919189453	1278.8671875	-37.34279251098604	196.0526428222656	1189.207885742188	-24.83486366271946	75.67948913574219	1200.259521484375	-35.09340667724582	113.4921951293945	1091.9404296875	-21.90670394897437	104.4315643310547	1087.466918945312	-101.6319885253904	182.1159210205078	896.917236328125	-0.5830771923063194	214.6803588867188	823.1982421875	-35.98410797119122	140.3156433105469	813.9612426757812	-5.232638835906802	193.0547180175781	737.3355712890625	19.01422119140641	215.3129272460938	1445.822875976562	-459.9300537109372	205.9176483154297	1281.580078125	-558.4889526367184	272.8286743164062	1204.966674804688	-554.7930908203123	153.2202758789062	1201.435302734375	-588.0705566406248	221.4531402587891	1099.9814453125	-594.7763671874998	166.8156433105469	1086.185913085938	-539.7629394531248	360.5324401855469	952.0985107421876	-557.964172363281	402.5723876953125	906.0401000976564	-500.6562194824216	366.9067077636719	867.3165893554689	-560.6704101562498	455.1615600585938	837.9122924804689	-542.2764892578123	218.4381713867188	1036.073120117188	-131.7163085937498	87.69511413574219	1014.129516601563	-292.6435852050779	197.4271545410156	1034.909790039062	-476.3737487792966	192.3275604248047	886.2499389648438	-116.5678939819334	313.5344543457031	628.139404296875	-151.6419067382811	360.7933044433594	662.47119140625	-149.8909301757811	398.717041015625	569.8250122070312	-188.6637268066405	337.0684204101562	552.115234375	-175.2006835937499	395.3080444335938	335.8033752441407	-178.4238281249999	453.6802062988281	331.2920227050782	-194.6975708007812	472.7107543945312	249.3012237548829	-214.0599212646484	410.2347717285156	237.0376892089844	-201.9097442626953	421.0613708496094	34.11041641235358	-291.1996765136719	583.7245483398438	33.78515625000004	-207.4298858642578	634.0372314453125	64.10144042968757	-295.4609375	149.7473449707031	930.6434326171876	-476.788146972656	156.7491302490234	637.6948852539064	-466.465850830078	110.5285339355469	673.0349121093751	-478.9196472167967	69.02949523925781	578.7579956054689	-448.8384399414061	130.9166564941406	563.3820800781251	-444.3980407714843	-42.86760711669922	333.8746948242189	-430.5631713867187	-101.4445266723633	349.0202941894532	-433.9213256835937	-153.0383758544922	280.8449096679689	-414.2197875976562	-97.06190490722656	249.9939880371095	-404.6539611816406	-290.6363525390625	155.219940185547	-339.8178100585937	-167.0449066162109	23.57171058654794	-390.3524780273438	-131.5356903076172	30.57739830017096	-287.6133422851562	
47	0.184	337.0705871582031	1706.832153320312	-279.1862487792965	277.5163269042969	1651.823608398438	-205.8355102539059	278.1749267578125	1663.536254882812	-352.8889160156247	138.9180145263672	1487.089721679688	-293.3803710937497	67.65415191650391	1286.503173828125	-237.3265075683591	70.18930816650391	1295.454711914062	-372.168762207031	318.3092956542969	1326.369140625	-290.2940673828122	207.4273529052734	1437.623168945312	-119.3513793945309	149.2748565673828	1278.709716796875	-36.94591522216768	202.7683563232422	1189.251831054688	-24.59937286376927	82.44666290283203	1199.98876953125	-34.65660476684544	120.1518325805664	1091.575073242188	-22.05258941650366	111.1039733886719	1087.44873046875	-101.6641387939451	189.0040130615234	896.6346435546875	-0.7843592166898644	221.8298950195312	823.1887817382812	-34.96582794189435	147.3523101806641	813.6903686523438	-5.806691169738589	199.8236541748047	737.017578125	18.74988365173356	221.412109375	1446.345703125	-459.4484252929684	211.5793914794922	1281.884521484375	-557.7995605468747	278.4929809570312	1205.120727539063	-554.3290405273435	158.759033203125	1201.822875976563	-587.2741699218748	226.8186950683594	1100.1845703125	-593.9625854492185	171.8036193847656	1086.633422851563	-539.465637207031	365.1441955566406	951.2648925781251	-558.340148925781	407.2502136230469	904.7623901367189	-501.4937744140623	370.7987670898438	866.5050048828126	-561.302795410156	459.0310974121094	836.4791870117189	-543.5411987304685	225.1432342529297	1036.294067382812	-131.574752807617	93.58580017089844	1015.035827636719	-293.6702575683591	204.5340881347656	1034.927490234375	-476.4494018554685	199.3037872314453	887.1489868164062	-116.1025466918943	320.4313049316406	629.47412109375	-152.107696533203	367.7763671875	663.8312377929688	-150.496383666992	405.581787109375	571.1412353515625	-188.9544219970702	343.9945068359375	553.6475830078125	-175.128204345703	401.4653625488281	337.0668640136719	-177.7537536621093	459.4200744628906	331.8931884765626	-194.8601531982421	477.302490234375	249.5013427734376	-214.4706115722656	415.0568237304688	238.0269012451172	-201.2616577148437	421.6729431152344	34.67842483520514	-290.8836059570312	584.321044921875	32.43683242797857	-208.4266662597656	635.1065063476562	61.20550155639655	-296.3694763183594	156.9968414306641	930.4045410156251	-476.7626647949216	165.1629028320312	637.6837768554689	-466.5641174316405	118.7599182128906	672.2241821289064	-478.8123474121092	77.41463470458984	577.8223266601564	-449.1986694335936	139.2964172363281	562.1696777343751	-444.4342041015624	-36.23046875	334.2882080078126	-431.2294616699218	-94.71244812011719	349.9653625488282	-434.8035583496093	-145.8206481933594	282.6216735839845	-414.7932128906249	-91.76219177246094	251.0513916015626	-405.5730285644531	-286.0609741210938	159.4078216552735	-340.5638427734374	-166.2244720458984	24.05790901184091	-390.0377197265625	-131.4077758789062	30.6191139221192	-286.8973693847656	
48	0.188	342.9351196289062	1707.354736328125	-278.5368347167965	283.5990905761719	1652.412841796875	-205.0609130859371	284.2623596191406	1664.126098632812	-352.2472534179684	145.2684936523438	1487.53662109375	-292.6809387207028	73.90114593505859	1286.915161132812	-236.8585968017575	76.49591827392578	1295.836791992188	-371.4408264160153	324.6654968261719	1327.019409179688	-289.6210021972653	213.8473968505859	1437.746459960938	-118.7126235961911	155.9728851318359	1278.577392578125	-36.53754806518526	209.4954833984375	1189.134765625	-24.5146751403806	89.22940826416016	1199.800048828125	-34.31711578369114	127.2455978393555	1091.421264648438	-21.84505271911597	117.8747482299805	1087.619018554688	-101.5753555297849	196.0204467773438	896.4814453125	-1.079100251197616	228.8002471923828	823.0615844726562	-36.33060073852521	154.3175506591797	813.4205322265625	-6.05011510848981	206.8849334716797	736.8980102539062	18.13844108581559	227.5214691162109	1446.94580078125	-458.9501342773434	217.2929534912109	1282.35693359375	-557.1986083984372	284.0569458007812	1205.46044921875	-553.8026123046873	164.1907958984375	1202.301391601563	-586.8105468749998	232.1204223632812	1100.511840820313	-593.1392822265623	177.3905029296875	1087.105224609375	-538.3671874999998	369.6209411621094	950.5246582031251	-558.9365234374998	411.5714111328125	903.7390136718751	-502.1535339355466	374.5973815917969	865.8057250976564	-562.1337890624998	462.74658203125	835.0823974609376	-544.8715820312498	231.9644165039062	1036.45556640625	-131.3287200927732	100.1423645019531	1015.415161132813	-293.8430480957029	211.69970703125	1034.705078125	-476.3786010742185	206.2210083007812	888.4898681640625	-115.5467834472654	327.4692077636719	630.9321899414062	-152.5548400878905	374.8168029785156	665.189697265625	-151.0953063964842	412.9909973144531	572.6700439453125	-189.1590728759764	351.2426147460938	555.0811157226562	-175.1779174804686	407.3990478515625	338.3192138671876	-177.002960205078	464.9792175292969	332.3216552734376	-195.2373046874999	481.4629211425781	249.8115539550782	-214.7568969726562	419.3526916503906	238.8997650146485	-200.3239135742187	422.1612854003906	35.13418197631842	-290.5892944335938	585.2550048828125	30.43085479736333	-209.0185241699219	635.9146118164062	58.66772842407233	-297.0088195800781	164.0131530761719	929.7122802734376	-476.9417419433591	173.6662750244141	636.9433593750001	-466.5875854492186	127.1674118041992	671.5010986328126	-478.025909423828	86.23457336425781	576.8387451171876	-449.6463623046874	148.2492828369141	561.3524169921876	-444.7119140624999	-29.38021087646484	334.5979003906251	-431.7557678222656	-87.73667144775391	351.3559875488282	-435.5390014648437	-140.5015869140625	284.3527832031251	-415.6744079589843	-86.02463531494141	252.0265502929688	-406.7117919921874	-280.9468688964844	163.7229003906251	-341.3045349121093	-165.846435546875	24.74410629272469	-391.0701293945312	-130.8489990234375	30.99680137634284	-286.9208984375	
